<svg xmlns="http://www.w3.org/2000/svg" version="1.1" xmlns:xlink="http://www.w3.org/1999/xlink" xmlns:svgjs="http://svgjs.com/svgjs" width="4" height="11"><svg width="4" height="11" viewBox="0 0 4 11" fill="none" xmlns="http://www.w3.org/2000/svg">
<path d="M3.64705 5.744V8.754C3.64705 9.146 3.52572 9.46333 3.28305 9.706C3.04038 9.93933 2.72305 10.056 2.33105 10.056H1.32305C0.931051 10.056 0.613718 9.93933 0.371051 9.706C0.128384 9.46333 0.0070508 9.146 0.0070508 8.754V1.446C0.0070508 1.054 0.128384 0.741333 0.371051 0.508C0.613718 0.265333 0.931051 0.143999 1.32305 0.143999H2.33105C2.72305 0.143999 3.04038 0.265333 3.28305 0.508C3.52572 0.741333 3.64705 1.054 3.64705 1.446V4.582L2.31705 4.442V1.516C2.31705 1.46933 2.29372 1.446 2.24705 1.446H1.40705C1.36038 1.446 1.33705 1.46933 1.33705 1.516V8.684C1.33705 8.73067 1.36038 8.754 1.40705 8.754H2.24705C2.29372 8.754 2.31705 8.73067 2.31705 8.684V5.744H3.64705Z" fill="white"></path>
</svg><style>@media (prefers-color-scheme: light) { :root { filter: none; } }
</style></svg>